<?xml version="1.0" encoding="utf-8"?>
<!-- Generator: Adobe Illustrator 18.1.1, SVG Export Plug-In . SVG Version: 6.00 Build 0)  -->
<svg version="1.1" xmlns="http://www.w3.org/2000/svg" xmlns:xlink="http://www.w3.org/1999/xlink" x="0px" y="0px"
	 viewBox="0 0 553.6 173.1" enable-background="new 0 0 553.6 173.1" xml:space="preserve">
<g id="Capa_1">
	<path fill="#C23638" d="M553.6,160.5c0,7-8.9,12.7-19.8,12.7h-514C8.9,173.1,0,167.5,0,160.5V12.7C0,5.7,8.9,0,19.8,0h514
		c10.9,0,19.8,5.7,19.8,12.7V160.5z"/>
	<circle fill="#001D7E" cx="93.8" cy="88" r="79.2"/>
	<g opacity="0.6">
		<path fill="none" stroke="#FFFFFF" stroke-width="0.4979" d="M156.2,39.7c26.9,34.6,20.6,84.5-14.1,111.4
			c-34.7,26.9-84.5,20.6-111.4-14.1C3.8,102.4,10.1,52.5,44.8,25.7C79.4-1.2,129.3,5.1,156.2,39.7z"/>
		<path fill="none" stroke="#FFFFFF" stroke-width="0.4979" d="M143.8,49.3c26.9,34.7,26.1,80.2-1.7,101.8
			c-27.8,21.6-72.1,11-99-23.7C16.2,92.8,17,47.2,44.8,25.7C72.6,4.1,116.9,14.7,143.8,49.3z"/>
		<path fill="none" stroke="#FFFFFF" stroke-width="0.4979" d="M130.4,59.8c26.9,34.7,32.2,75.6,11.8,91.4
			c-20.4,15.8-58.7,0.5-85.6-34.1C29.7,82.4,24.4,41.5,44.8,25.7C65.2,9.8,103.5,25.1,130.4,59.8z"/>
		<path fill="none" stroke="#FFFFFF" stroke-width="0.4979" d="M114.5,72.1c26.9,34.7,39.3,70,27.7,79c-11.6,9-42.8-11.8-69.7-46.4
			c-26.9-34.7-39.3-70-27.7-79C56.4,16.7,87.6,37.4,114.5,72.1z"/>
		<path fill="none" stroke="#FFFFFF" stroke-width="0.4979" d="M104.1,80.1c26.9,34.6,44.1,66.3,38.4,70.7
			c-5.7,4.4-32.1-20.1-59-54.8C56.7,61.4,39.5,29.8,45.2,25.4C50.9,21,77.2,45.5,104.1,80.1z"/>
		
			<ellipse transform="matrix(-0.613 -0.7901 0.7901 -0.613 80.9117 216.44)" fill="none" stroke="#FFFFFF" stroke-width="0.4979" cx="93.5" cy="88.4" rx="63.7" ry="79.4"/>
		
			<ellipse transform="matrix(-0.613 -0.7901 0.7901 -0.613 80.9117 216.4399)" fill="none" stroke="#FFFFFF" stroke-width="0.4979" cx="93.5" cy="88.4" rx="46.7" ry="79.4"/>
		
			<ellipse transform="matrix(-0.613 -0.7901 0.7901 -0.613 80.9115 216.438)" fill="none" stroke="#FFFFFF" stroke-width="0.4979" cx="93.5" cy="88.4" rx="26.6" ry="79.4"/>
		
			<ellipse transform="matrix(-0.613 -0.7901 0.7901 -0.613 80.9144 216.4389)" fill="none" stroke="#FFFFFF" stroke-width="0.4979" cx="93.5" cy="88.4" rx="13" ry="79.4"/>
	</g>
</g>
<g id="Capa_2">
	<g>
		<path fill="#DB9600" d="M45,58.8c3.1-4.2,9-8.7,19-8.7C76.1,50,82,58.1,82,65.3c0,7.2-4.3,11.4-9.3,13.7c9.3,1.9,14.6,8.6,14.6,18
			c0,15.2-9.7,24.6-24.8,24.6c-8.2,0-14.9-2.1-20.3-6l5.7-14.7l2.3,0.6c0.7,5.6,5.1,9.7,11.3,9.7c6.8,0,12.2-4.2,12.2-12.8
			c0-8.6-6.1-13-17.7-12.3v-9.6c8.2,0,13.3-3.4,13.3-9.2c0-4.7-3.6-7.7-7.4-7.7c-3.5,0-6.8,2-6.8,6.1c0,0.7,0.1,1.3,0.2,2.1
			l-2.2,1.2L45,58.8z"/>
		<path fill="#DB9600" d="M140.4,85.7c0,13.5-2.4,23.7-8.6,29.9c-4.2,4.2-8.9,5.8-14.1,5.8c-5.3,0-10.5-1.7-14.7-5.9
			c-7-7.1-8.4-18.3-8.4-31.8c0-13,4-33.6,23.1-33.6c6,0,11.1,2.8,14.2,5.7C137.2,61.2,140.4,69.6,140.4,85.7z M118.3,111.4
			c8.6,0,8.6-13.1,8.6-21.8c0-4.9,0-22.2-5.4-27.7c-1.3-1.3-3.1-2-4.9-2c-8.6,0-8.6,13.7-8.6,23c0,14.1,2,23,5.4,26.4
			C114.6,110.8,116.4,111.4,118.3,111.4z"/>
	</g>
	<rect x="55.3" y="33.5" fill="#001D7E" width="79" height="14"/>
	
		<rect x="42.8" y="130" transform="matrix(1 -2.021996e-03 2.021996e-03 1 -0.2767 0.188)" fill="#001D7E" width="100" height="14"/>
	<g>
		<path fill="#FFFFFF" d="M59.2,45h1.2c0.2,0,0.4-0.3,0.4-0.5V37l-1.2,0.6h-0.4v-0.9l2.2-1.3h1.2v9.1c0,0.2,0.2,0.5,0.4,0.5h1v1
			h-4.8V45z"/>
		<path fill="#FFFFFF" d="M72.4,40.4c0,3.6-1.9,5.6-4.9,5.6c-1.1,0-1.9-0.1-2.5-0.4v-1.4h1c0.3,0.4,0.7,0.7,1.6,0.7c2.3,0,3-2,3-4
			C70,41.5,69,42,67.8,42c-1.8,0-3.2-1-3.2-3.1c0-2.1,1.5-3.5,3.8-3.5C70.6,35.3,72.4,36.9,72.4,40.4z M66.3,38.8c0,1.4,0.8,2,2,2
			c1,0,1.8-0.5,2.3-1c-0.1-2.4-0.9-3.3-2.2-3.3C66.9,36.5,66.3,37.4,66.3,38.8z"/>
		<path fill="#FFFFFF" d="M73.1,43c0-1.4,0.8-2.2,2.2-2.7v0c-1.1-0.4-1.7-1.1-1.7-2.2c0-1.7,1.4-2.7,3.4-2.7c2.1,0,3.5,1.1,3.5,2.7
			c0,1.1-0.6,1.9-1.7,2.2v0c1.4,0.4,2.2,1.3,2.2,2.7c0,1.8-1.4,3-3.9,3C74.5,46,73.1,44.8,73.1,43z M79.2,42.9c0-1.2-0.7-2-2.2-2
			s-2.2,0.9-2.2,2c0,1.2,0.7,2,2.2,2C78.6,44.9,79.2,44.1,79.2,42.9z M78.8,38.1c0-1.1-0.6-1.7-1.8-1.7c-1.1,0-1.8,0.6-1.8,1.7
			c0,1.1,0.6,1.6,1.8,1.6C78.2,39.8,78.8,39.2,78.8,38.1z"/>
		<path fill="#FFFFFF" d="M81.8,40.9c0-3.6,2-5.6,5-5.6c1,0,1.8,0.1,2.3,0.3V37h-1c-0.2-0.2-0.6-0.5-1.4-0.5c-2.3,0-3.1,2-3.1,4
			c0.6-0.6,1.6-1.1,2.8-1.1c1.8,0,3.2,1,3.2,3.1c0,2.1-1.5,3.5-3.8,3.5C83.5,46,81.8,44.4,81.8,40.9z M87.8,42.5c0-1.4-0.8-2-2-2
			c-1,0-1.8,0.5-2.3,1c0.1,2.4,0.9,3.4,2.2,3.4C87.2,44.9,87.8,43.9,87.8,42.5z"/>
		<path fill="#FFFFFF" d="M92.8,40.8H96v1.2h-3.1V40.8z"/>
		<path fill="#FFFFFF" d="M99.2,45.1c0-2,1.4-3,2.9-4.1c1.4-0.9,2.4-1.6,2.4-2.8c0-1.1-0.5-1.7-1.8-1.7c-1.2,0-1.8,0.4-2,1.4h-1v-2
			c0.9-0.3,1.9-0.6,3.1-0.6c2.2,0,3.5,1,3.5,2.9c0,1.9-1.6,2.8-3.1,3.7c-1.2,0.7-2.4,1.6-2.4,2.7h4.1l0.1-1.4h1.1v2.7h-6.9V45.1z"/>
		<path fill="#FFFFFF" d="M107.1,40.7c0-3.6,2.1-5.4,4.4-5.4c2.4,0,4.4,1.8,4.4,5.4c0,3.6-2.1,5.4-4.4,5.4
			C109.1,46,107.1,44.3,107.1,40.7z M114.1,40.7c0-3-1-4.2-2.6-4.2c-1.6,0-2.6,1.2-2.6,4.2c0,3,1,4.2,2.6,4.2
			C113.1,44.9,114.1,43.7,114.1,40.7z"/>
		<path fill="#FFFFFF" d="M116.6,45h1.2c0.2,0,0.4-0.3,0.4-0.5V37l-1.2,0.6h-0.4v-0.9l2.2-1.3h1.2v9.1c0,0.2,0.2,0.5,0.5,0.5h1v1
			h-4.8V45z"/>
		<path fill="#FFFFFF" d="M121.9,40.9c0-3.6,2-5.6,5-5.6c1,0,1.8,0.1,2.3,0.3V37h-1c-0.2-0.2-0.6-0.5-1.4-0.5c-2.3,0-3.1,2-3.1,4
			c0.6-0.6,1.6-1.1,2.8-1.1c1.8,0,3.2,1,3.2,3.1c0,2.1-1.5,3.5-3.8,3.5C123.7,46,121.9,44.4,121.9,40.9z M128,42.5c0-1.4-0.8-2-2-2
			c-1,0-1.8,0.5-2.3,1c0.1,2.4,0.9,3.4,2.2,3.4C127.4,44.9,128,43.9,128,42.5z"/>
	</g>
	<g>
		<path fill="#FFFFFF" d="M44.8,132.9c-0.2-0.6-0.3-1-0.5-1.7c1.1-0.6,2.3-1,3.7-1c1.2,0,2.2,0.3,2.9,1c1,1,1.1,2.6,1.3,4.8
			c0.2,1.9,0.1,3.6,0.8,4.3c0.1,0.1,0.3,0.2,0.5,0.2c0.2,0,0.4-0.1,0.6-0.1l0.2,0.7c-0.5,0.2-0.9,0.3-1.3,0.3
			c-0.8,0-1.4-0.5-1.5-1.2c-1.3,0.8-2.8,1.5-4.4,1.5c-2.4,0-3.4-1.6-3.4-3.1c0-3.4,3.7-4,7.2-4.4c-0.2-2-1-3-2.8-3
			c-1.5,0-2.7,0.6-2.9,1.7H44.8z M50.8,135.1c-4,0.5-6.1,1.1-6.1,3.2c0,1.4,0.9,2.5,2.5,2.5c1.2,0,2.6-0.6,4-1.5
			C51,138.2,51,136.6,50.8,135.1z"/>
		<path fill="#FFFFFF" d="M55,133c0-0.5-0.4-0.8-0.8-0.9v-0.3c0.6-0.4,1.3-1,1.8-1.6h0.3v1.7c0.8-0.6,2.1-1.7,4.3-1.7
			c2.1,0,4,1.1,4,4.2v5.4c0,0.7,0.2,1.1,0.9,1.3v0.3h-2.9v-0.3c0.5-0.1,0.8-0.6,0.8-1.1v-6c0-1.8-1.3-2.7-3-2.7
			c-1.4,0-2.9,0.6-4.1,1.7v7.2c0,0.5,0.3,1,0.9,1.1v0.3h-2.9v-0.3c0.6-0.1,0.9-0.6,0.9-1.2V133z"/>
		<path fill="#FFFFFF" d="M66.2,132c0.7-0.5,1.4-1.2,1.8-1.7h0.3v9.5c0,0.8,0.3,1.2,0.8,1.4v0.3h-2.9v-0.3c0.5-0.2,0.8-0.6,0.8-1.3
			v-6.5c0-0.7-0.3-1.1-0.9-1.1V132z M66.7,125.3c0.4-0.3,0.6-0.6,0.9-0.9h0.3c0.3,0.4,0.5,0.6,0.9,0.9v0.3c-0.3,0.3-0.6,0.5-0.9,0.9
			h-0.3c-0.3-0.4-0.6-0.7-0.9-0.9V125.3z"/>
		<path fill="#FFFFFF" d="M69.8,130.7h2.7v0.3c-0.4,0.2-0.7,0.4-0.7,0.7c0,0.3,0.2,0.7,0.5,1.4l3.6,7.3l3.2-7
			c0.3-0.6,0.5-1.2,0.5-1.6c0-0.4-0.2-0.7-0.6-0.9v-0.3h2.4v0.3c-0.2,0.1-0.5,0.6-0.8,1.1l-4.6,9.8h-0.8l-4.6-9.5
			c-0.4-0.7-0.7-1.1-0.9-1.4V130.7z"/>
		<path fill="#FFFFFF" d="M91.6,138.8c-1.1,1.8-2.6,3-4.9,3c-3.2,0-5.2-2.5-5.2-5.8c0-3.4,2.2-5.6,5.2-5.6c3.8,0,4,3.3,4.9,3.4
			l0.2,0.5l-9,2.5c0.5,2.4,1.8,4,4.2,4c1.5,0,3.1-1,4-2.3L91.6,138.8z M90,133.9c-0.7-1.6-1.9-2.7-3.5-2.7c-2.7,0-3.9,2.3-3.8,4.7
			L90,133.9z"/>
		<path fill="#FFFFFF" d="M93.5,133.1c0-0.5-0.3-1-0.9-1.1l0.1-0.2c0.8-0.5,1.3-1,1.8-1.5h0.3v2.2c1.9-1.7,3.1-2.4,4.8-2.2l0.4,2.1
			h-0.2c-0.3-0.4-0.7-0.9-1.6-0.9c-1.3,0-2.8,1.5-3.3,2.2v6.2c0,0.7,0.2,1.1,0.8,1.3v0.3h-2.9v-0.3c0.6-0.2,0.9-0.8,0.9-1.5V133.1z"
			/>
		<path fill="#FFFFFF" d="M100.2,138.9c1,1.3,2.3,2,3.6,2c1.6,0,2.5-0.9,2.5-1.9c0-0.4-0.2-0.9-0.6-1.2c-1-1-3.5-1.6-4.7-2.8
			c-0.6-0.6-0.8-1.3-0.8-1.9c0-1.8,1.6-2.8,3.5-2.8c1,0,2.1,0.3,2.9,0.7l0.3,2h-0.3c-0.5-1.1-1.7-1.9-3-1.9c-1.5,0-2.2,0.9-2.2,1.7
			c0,0.3,0.1,0.8,0.5,1.2c1,1,3.4,1.4,4.8,2.8c0.4,0.4,0.7,1,0.7,1.8c0,1.5-1.2,3.1-3.9,3.1c-1.3,0-2.3-0.5-3.2-0.9l-0.3-2H100.2z"
			/>
		<path fill="#FFFFFF" d="M109.8,132.9c-0.2-0.6-0.3-1-0.5-1.7c1.1-0.6,2.3-1,3.7-1c1.2,0,2.2,0.3,2.9,1c1,1,1.1,2.6,1.3,4.8
			c0.2,1.9,0.1,3.6,0.8,4.3c0.1,0.1,0.3,0.2,0.5,0.2c0.2,0,0.4-0.1,0.6-0.1l0.2,0.7c-0.5,0.2-0.9,0.3-1.3,0.3
			c-0.8,0-1.4-0.5-1.5-1.2c-1.3,0.8-2.8,1.5-4.4,1.5c-2.4,0-3.4-1.6-3.4-3.1c0-3.4,3.7-4,7.2-4.4c-0.2-2-1-3-2.8-3
			c-1.5,0-2.7,0.6-2.9,1.7H109.8z M115.8,135.1c-4,0.5-6.1,1.1-6.1,3.2c0,1.4,0.9,2.5,2.5,2.5c1.2,0,2.6-0.6,4-1.5
			C116,138.2,116,136.6,115.8,135.1z"/>
		<path fill="#FFFFFF" d="M120.3,133.1c0-0.5-0.3-1-0.9-1.1l0-0.2c0.8-0.5,1.3-1,1.8-1.5h0.3v2.2c1.9-1.7,3.1-2.4,4.8-2.2l0.4,2.1
			h-0.2c-0.3-0.4-0.7-0.9-1.6-0.9c-1.3,0-2.8,1.5-3.3,2.2v6.2c0,0.7,0.2,1.1,0.8,1.3v0.3h-2.9v-0.3c0.6-0.2,0.9-0.8,0.9-1.5V133.1z"
			/>
		<path fill="#FFFFFF" d="M127,132c0.7-0.5,1.4-1.2,1.8-1.7h0.3v9.5c0,0.8,0.3,1.2,0.8,1.4v0.3H127v-0.3c0.5-0.2,0.8-0.6,0.8-1.3
			v-6.5c0-0.7-0.3-1.1-0.9-1.1V132z M127.4,125.3c0.4-0.3,0.6-0.6,0.9-0.9h0.3c0.3,0.4,0.5,0.6,0.9,0.9v0.3
			c-0.3,0.3-0.6,0.5-0.9,0.9h-0.3c-0.3-0.4-0.6-0.7-0.9-0.9V125.3z"/>
		<path fill="#FFFFFF" d="M131,136.2c0-3.2,2.5-5.9,5.8-5.9c2.9,0,5.6,2.4,5.6,5.7c0,3.1-2.6,5.8-5.8,5.8
			C133.4,141.8,131,139.1,131,136.2z M141.3,136.5c0-3-2.2-5.3-4.7-5.3c-2.4,0-4.4,1.7-4.4,4.5c0,2.9,2.4,5.2,4.7,5.2
			C139.1,140.9,141.3,139.3,141.3,136.5z"/>
	</g>
	<g>
		<path fill="#FFFFFF" d="M425.6,38.2c-2.2,2.8-3.3,6.6-3.3,11.4c0,4.8,1.1,8.6,3.3,11.4c2.2,2.8,5.3,4.1,9.2,4.1
			c3.9,0,7-1.4,9.2-4.1c2.2-2.8,3.3-6.6,3.3-11.4c0-4.8-1.1-8.6-3.3-11.4c-2.2-2.8-5.3-4.1-9.2-4.1C430.8,34,427.8,35.4,425.6,38.2
			 M428.1,67c-2-0.9-3.7-2.1-5.2-3.8c-1.4-1.6-2.5-3.6-3.3-6c-0.8-2.3-1.2-4.9-1.2-7.7c0-2.9,0.4-5.5,1.2-7.8
			c0.8-2.3,1.9-4.3,3.3-5.9c1.4-1.7,3.1-2.9,5.1-3.8c2-0.9,4.3-1.3,6.8-1.3c2.5,0,4.8,0.4,6.8,1.3c2,0.9,3.7,2.1,5.1,3.8
			c1.4,1.6,2.5,3.6,3.3,5.9c0.8,2.3,1.2,4.9,1.2,7.8c0,2.8-0.4,5.4-1.2,7.7c-0.8,2.3-1.9,4.3-3.3,6c-1.4,1.6-3.2,2.9-5.2,3.8
			c-2,0.9-4.3,1.3-6.7,1.3C432.3,68.4,430.1,67.9,428.1,67z M405.1,19.6h4v4h-4V19.6z M405.3,31.7h3.7v40.9c0,1.1-0.2,2.1-0.6,3.1
			c-0.4,1-0.9,1.9-1.7,2.6c-0.8,0.8-1.7,1.4-2.8,1.8c-1.1,0.5-2.4,0.7-3.9,0.7l-0.3-3.4c2,0,3.5-0.5,4.3-1.4c0.9-0.9,1.3-2,1.3-3.2
			V31.7z M391.8,45.8c-0.2-3.9-1.3-6.8-3.4-8.8c-2.1-2-4.8-3-8.2-3c-3.2,0-5.9,0.9-8.1,2.7c-2.3,1.8-3.7,4.8-4.4,9.1H391.8z
			 M386,64.2c1.7-0.6,3.4-1.7,5.1-3.2l1.9,2.8c-1.2,0.8-2.2,1.6-3.1,2.2c-0.9,0.6-1.9,1.1-2.8,1.4c-0.9,0.3-1.9,0.6-3,0.8
			c-1,0.2-2.3,0.2-3.7,0.2c-2.6,0-4.9-0.4-7-1.3c-2.1-0.9-3.9-2.1-5.3-3.8c-1.5-1.6-2.6-3.6-3.4-5.9c-0.8-2.3-1.2-4.9-1.2-7.8
			c0-2.9,0.4-5.5,1.2-7.8c0.8-2.3,1.9-4.3,3.4-5.9c1.5-1.6,3.2-2.9,5.3-3.8c2-0.9,4.3-1.4,6.8-1.4c1.7,0,3.5,0.2,5.3,0.7
			c1.8,0.5,3.5,1.4,5,2.7c1.5,1.3,2.7,3.2,3.7,5.6c1,2.4,1.5,5.5,1.5,9.3h-28.3c0,5.3,1.2,9.4,3.6,12c2.4,2.7,5.5,4,9.4,4
			C382.4,65.1,384.3,64.8,386,64.2z M336.2,63.9c2,0.8,4.2,1.2,6.6,1.2c3.2,0,5.7-0.7,7.4-2c1.7-1.3,2.6-3.1,2.6-5.2
			c0-2.1-0.8-3.7-2.5-4.7c-1.7-1-4-1.8-7-2.3c-1.6-0.3-3.2-0.6-4.8-1c-1.6-0.4-3-1-4.2-1.7c-1.2-0.7-2.2-1.7-3-2.8
			c-0.8-1.2-1.1-2.6-1.1-4.4c0-1.4,0.3-2.7,0.8-4c0.6-1.3,1.4-2.3,2.5-3.3c1.1-0.9,2.5-1.7,4.1-2.2c1.6-0.6,3.5-0.8,5.6-0.8
			c2.5,0,4.7,0.3,6.6,1c1.9,0.7,3.7,1.6,5.4,2.8l-1.8,2.9c-1.3-0.9-2.7-1.7-4.5-2.4c-1.7-0.7-3.6-1.1-5.7-1.1c-3.3,0-5.7,0.7-7.2,2
			c-1.5,1.3-2.2,2.9-2.2,4.7c0,1.2,0.3,2.2,0.9,2.9c0.6,0.7,1.3,1.4,2.3,1.8c0.9,0.5,2,0.9,3.3,1.1c1.2,0.3,2.5,0.5,3.7,0.7
			c1.5,0.3,3,0.6,4.5,1.1c1.5,0.4,2.8,1,4,1.8c1.2,0.8,2.1,1.7,2.9,2.9c0.7,1.2,1.1,2.7,1.1,4.4c0,1.7-0.3,3.2-1,4.5
			c-0.7,1.3-1.7,2.5-2.9,3.4c-1.2,0.9-2.7,1.6-4.4,2.1c-1.7,0.5-3.6,0.7-5.6,0.7c-2.9,0-5.5-0.4-7.7-1.3c-2.2-0.9-4.3-2.1-6.4-3.8
			l1.9-2.9C332.2,61.9,334.1,63.1,336.2,63.9z M294.8,38.8h0.4l1.9-4c0.1-0.3,0.5-0.7,1-1.2c0.6-0.5,1.3-0.9,2.2-1.3
			c0.9-0.4,1.9-0.8,3.1-1.1c1.2-0.3,2.5-0.5,3.9-0.5c4.5,0,7.8,1.2,9.8,3.5c2,2.3,3,5.6,3,9.7v23.4h-3.7V44.1c0-6.7-3-10.1-9.1-10.1
			c-2,0-3.8,0.3-5.3,1c-1.6,0.7-2.8,1.6-3.9,2.8c-1,1.2-1.8,2.7-2.4,4.3c-0.5,1.7-0.8,3.5-0.8,5.4v19.7h-3.7V31.7h3.7V38.8z
			 M255.3,38.2c-2.2,2.8-3.3,6.6-3.3,11.4c0,4.8,1.1,8.6,3.3,11.4c2.2,2.8,5.3,4.1,9.2,4.1c3.9,0,6.9-1.4,9.2-4.1
			c2.2-2.8,3.3-6.6,3.3-11.4c0-4.8-1.1-8.6-3.3-11.4c-2.2-2.8-5.3-4.1-9.2-4.1C260.6,34,257.5,35.4,255.3,38.2z M257.8,67
			c-2-0.9-3.7-2.1-5.2-3.8c-1.4-1.6-2.5-3.6-3.3-6c-0.8-2.3-1.2-4.9-1.2-7.7c0-2.9,0.4-5.5,1.2-7.8c0.8-2.3,1.9-4.3,3.3-5.9
			c1.4-1.7,3.1-2.9,5.1-3.8c2-0.9,4.3-1.3,6.8-1.3c2.5,0,4.8,0.4,6.8,1.3c2,0.9,3.7,2.1,5.1,3.8c1.4,1.6,2.5,3.6,3.3,5.9
			c0.8,2.3,1.2,4.9,1.2,7.8c0,2.8-0.4,5.4-1.2,7.7c-0.8,2.3-1.9,4.3-3.3,6c-1.4,1.6-3.2,2.9-5.2,3.8c-2,0.9-4.3,1.3-6.7,1.3
			C262.1,68.4,259.8,67.9,257.8,67z M224.1,67.1c-2.1-0.9-3.9-2.1-5.3-3.7c-1.5-1.6-2.6-3.6-3.4-5.9c-0.8-2.3-1.2-5-1.2-7.9
			c0-2.9,0.4-5.6,1.2-7.9c0.8-2.3,1.9-4.3,3.4-5.9c1.5-1.6,3.2-2.8,5.3-3.7c2.1-0.9,4.4-1.3,7-1.3c3.1,0,5.6,0.5,7.5,1.4
			c1.9,1,3.5,2.1,4.7,3.4l-2.5,2.7c-1.3-1.5-2.8-2.6-4.4-3.3c-1.6-0.7-3.4-1-5.3-1c-4,0-7.1,1.3-9.5,4c-2.3,2.7-3.5,6.5-3.5,11.6
			c0,5.1,1.2,8.9,3.5,11.5c2.3,2.6,5.5,3.9,9.4,3.9c1.9,0,3.7-0.3,5.3-1c1.6-0.7,3.1-1.8,4.4-3.3l2.5,2.7c-1.3,1.3-2.8,2.5-4.7,3.4
			c-1.9,1-4.4,1.4-7.5,1.4C228.5,68.4,226.2,67.9,224.1,67.1z"/>
		<path fill="#FFFFFF" d="M430.9,71.7h14v47.4c0,1.7,0.5,3,1.5,3.6c1,0.7,2.6,0.9,4.9,0.6v12.2c-6.9,0.7-12,0-15.3-1.9
			c-3.4-1.9-5-5.5-5-10.6V71.7 M408.8,113.8c-0.5-0.1-0.9-0.1-1.3-0.1c-0.4,0-0.9,0-1.4,0c-4,0-7,0.5-9.2,1.6
			c-2.2,1.1-3.3,2.8-3.3,5c0,1.7,0.5,3.1,1.6,4c1.1,0.9,2.5,1.4,4.4,1.4c2.5,0,4.7-0.9,6.6-2.7c1.9-1.8,2.8-4.2,2.8-7.4V113.8z
			 M415.2,136.6l-3-5.9c-0.4-0.7-0.6-1.3-0.9-1.9c-0.2-0.6-0.4-1.3-0.5-2c0,0-1.3,9.5-15.2,9.4c-5.2,0-9.1-1.3-11.8-4
			c-2.6-2.7-3.9-6.1-3.9-10.3c0-2.3,0.5-4.5,1.5-6.6c1-2.1,2.6-3.9,4.6-5.4c2.1-1.5,4.7-2.7,7.8-3.6c3.1-0.9,6.8-1.3,11.1-1.3
			c1,0,1.8,0,2.3,0c0.5,0,1.1,0,1.5,0.1v-1.6c0-1.7-0.6-3.2-1.8-4.3c-1.2-1.1-3.3-1.7-6.4-1.7c-2.2,0-4.4,0.4-6.7,1.2
			c-2.3,0.8-4.4,1.9-6.4,3.2l-5.6-9.8c3-2,6.1-3.5,9.3-4.5c3.2-1,6.8-1.5,10.7-1.5c7,0,12.2,1.7,15.6,5c3.4,3.3,5.1,8.1,5.1,14.4
			v16.4l4.7,8.9L415.2,136.6z M360.3,69.9h14.1v11.3h-14.1V69.9z M360.3,87.3h14v47.5h-14V87.3z M328.8,134.4
			c-3-1.1-5.6-2.7-7.7-4.8c-2.1-2.1-3.8-4.7-4.9-7.8c-1.2-3.1-1.7-6.7-1.7-10.6c0-3.8,0.6-7.2,1.7-10.3c1.1-3.1,2.7-5.7,4.8-7.9
			c2.1-2.2,4.6-3.9,7.7-5.1c3-1.2,6.5-1.8,10.3-1.8c4.2,0,7.9,0.6,11.2,1.9c3.2,1.3,5.8,3,7.7,5.2l-8.7,8.8
			c-1.2-1.5-2.6-2.6-4.2-3.3c-1.6-0.7-3.3-1-5.1-1c-3.6,0-6.3,1.2-8.2,3.7c-1.8,2.5-2.7,5.8-2.7,9.9c0,4,0.9,7.2,2.7,9.6
			c1.8,2.4,4.6,3.7,8.2,3.7c2.2,0,4-0.4,5.4-1.2c1.5-0.8,2.8-2,4.1-3.8l9.1,8.8c-2.5,2.6-5.3,4.6-8.3,5.8c-3,1.2-6.7,1.8-11.2,1.8
			C335.2,136.1,331.8,135.6,328.8,134.4z M277.1,100.9c-1.9,2.3-2.8,5.7-2.8,10.2c0,4.5,0.9,7.9,2.8,10.2c1.9,2.3,4.5,3.5,7.8,3.5
			c3.3,0,5.9-1.2,7.7-3.5c1.9-2.3,2.8-5.7,2.8-10.2c0-4.5-0.9-7.9-2.8-10.2c-1.9-2.3-4.4-3.4-7.7-3.4
			C281.5,97.5,278.9,98.7,277.1,100.9z M274.9,134.5c-3-1.1-5.6-2.7-7.8-4.8c-2.2-2.1-3.9-4.7-5.1-7.8c-1.2-3.1-1.8-6.7-1.8-10.8
			c0-4,0.6-7.5,1.8-10.6c1.2-3.1,2.9-5.7,5.1-7.9c2.2-2.2,4.8-3.8,7.9-4.9c3.1-1.1,6.4-1.7,10.1-1.7c3.7,0,7,0.6,10,1.7
			c3,1.1,5.6,2.8,7.8,4.9c2.2,2.2,3.9,4.8,5.1,7.9c1.2,3.1,1.8,6.6,1.8,10.6c0,4.1-0.6,7.7-1.8,10.8c-1.2,3.1-2.9,5.7-5.1,7.8
			c-2.2,2.1-4.8,3.7-7.9,4.8c-3.1,1.1-6.4,1.6-10.1,1.6C281.3,136.1,278,135.6,274.9,134.5z M227.7,123.6c2.7,0.8,5.5,1.3,8.5,1.3
			c4.9,0,7.4-1.4,7.4-4.2c0-1.3-0.8-2.2-2.3-2.8c-1.5-0.6-4.1-1.2-7.8-1.8c-5.5-0.8-9.6-2.4-12.4-4.8c-2.8-2.4-4.2-5.5-4.2-9.3
			c0-2.7,0.5-5,1.6-7c1.1-2,2.6-3.6,4.4-5c1.9-1.3,4-2.3,6.5-2.9c2.5-0.6,5.2-0.9,8-0.9c3.7,0,7.3,0.5,10.7,1.5
			c3.4,1,6.3,2.3,8.8,3.9l-6.1,9.9c-1.7-1.1-3.8-2.1-6.2-2.8c-2.4-0.8-4.8-1.1-7.3-1.1c-2.5,0-4.3,0.3-5.3,1c-1,0.7-1.5,1.6-1.5,2.8
			c0,0.7,0.2,1.2,0.6,1.7c0.4,0.5,1.1,0.8,2,1.1c0.9,0.3,2.1,0.6,3.5,0.9c1.4,0.3,3.1,0.6,5,0.9c5,0.8,8.8,2.3,11.5,4.6
			c2.7,2.3,4.1,5.6,4.1,9.7c0,2.8-0.6,5.3-1.8,7.3c-1.2,2-2.8,3.7-4.8,5c-2,1.3-4.3,2.2-6.9,2.8c-2.6,0.6-5.3,0.9-8.2,0.9
			c-4.3,0-8.4-0.6-12.1-1.7c-3.8-1.1-6.9-2.7-9.3-4.6l6-9.8C222.5,121.5,225,122.7,227.7,123.6z"/>
		<path fill="#FFFFFF" d="M528,107.1l-4.8,2.3c-0.9,0.5-2,0.8-3.4,0.9c0,0,7.8,1.5,7.8,12.7c0,1.7-0.2,3.3-0.7,4.9
			c-0.5,1.5-1.3,2.8-2.4,3.9c-1.1,1.1-2.5,2-4.2,2.7c-1.7,0.7-3.8,1-6.2,1h-22.5v-10.2h20.8c2.3,0,3.9-0.5,5-1.6
			c1-1.1,1.6-2.6,1.6-4.4c0-2.1-0.7-3.8-2-5.2c-1.4-1.4-3.2-2.1-5.6-2.2l-19.7,0.1v-10.3h25.6l6.5-3.5L528,107.1"/>
		<path fill="#FFFFFF" d="M526.4,88.3c-0.8,2.2-2,4.1-3.6,5.7c-1.6,1.6-3.5,2.8-5.8,3.6c-2.3,0.9-4.9,1.3-7.8,1.3
			c-2.8,0-5.3-0.4-7.6-1.3c-2.3-0.8-4.2-2-5.8-3.6c-1.6-1.5-2.9-3.4-3.8-5.7c-0.9-2.2-1.3-4.8-1.3-7.6c0-3.1,0.5-5.9,1.4-8.3
			c1-2.4,2.2-4.3,3.8-5.7l6.5,6.5c-1.1,0.9-1.9,1.9-2.4,3.1c-0.5,1.2-0.8,2.4-0.8,3.8c0,2.7,0.9,4.7,2.7,6c1.8,1.4,4.3,2,7.3,2
			c2.9,0,5.3-0.7,7.1-2c1.8-1.4,2.7-3.4,2.7-6c0-1.6-0.3-2.9-0.9-4c-0.6-1.1-1.5-2.1-2.8-3l6.5-6.7c1.9,1.9,3.4,3.9,4.3,6.1
			c0.9,2.2,1.4,5,1.4,8.3C527.6,83.6,527.2,86.1,526.4,88.3"/>
		<path fill="#FFFFFF" d="M509.2,41.4c3.3,0,5.8,0.7,7.5,2.1c1.7,1.4,2.6,3.3,2.6,5.7c0,2.4-0.9,4.3-2.6,5.7
			c-1.7,1.4-4.2,2.1-7.5,2.1c-3.3,0-5.9-0.7-7.6-2.1c-1.7-1.4-2.5-3.3-2.5-5.8c0-2.4,0.8-4.3,2.5-5.7
			C503.3,42.1,505.9,41.4,509.2,41.4 M509.1,30.7c-2.9,0-5.5,0.5-7.8,1.4c-2.3,0.9-4.2,2.2-5.8,3.8c-1.6,1.6-2.8,3.5-3.6,5.8
			c-0.8,2.2-1.2,4.7-1.2,7.4c0,2.7,0.4,5.2,1.2,7.5c0.8,2.3,2,4.2,3.6,5.8c1.6,1.6,3.5,2.9,5.8,3.8c2.3,0.9,4.9,1.3,7.8,1.3
			c3,0,5.7-0.5,8-1.4c2.3-0.9,4.2-2.2,5.8-3.8c1.6-1.6,2.7-3.6,3.5-5.8c0.8-2.2,1.2-4.7,1.2-7.4c0-2.7-0.4-5.2-1.2-7.5
			c-0.8-2.3-2-4.2-3.5-5.8c-1.6-1.6-3.5-2.9-5.8-3.8C514.8,31.2,512.2,30.7,509.1,30.7z"/>
		<rect x="468.2" y="30.3" fill="#FFFFFF" width="6.1" height="105.8"/>
		<rect x="192.2" y="30.3" fill="#FFFFFF" width="6.1" height="105.8"/>
	</g>
</g>
</svg>
